<svg xmlns="http://www.w3.org/2000/svg" viewBox="0 0 19.26 29.69"><defs><style>.cls-1{fill:#231f20;}</style></defs><title>6</title><g id="Layer_2" data-name="Layer 2"><g id="Layer_1-2" data-name="Layer 1"><path class="cls-1" d="M15,0V4h-.6A9.62,9.62,0,0,0,7.85,6.27a9.37,9.37,0,0,0-2.91,6.18,7.92,7.92,0,0,1,6-2.46A7.48,7.48,0,0,1,17,12.71a10.78,10.78,0,0,1,2.23,7,10.05,10.05,0,0,1-2.61,7.2,9.05,9.05,0,0,1-6.86,2.75,8.84,8.84,0,0,1-7.08-3.22A12.68,12.68,0,0,1,0,18V16.36q0-7.68,3.73-12T14.47,0ZM9.75,13.91a5.09,5.09,0,0,0-2.93.9,5.38,5.38,0,0,0-2,2.41V18.7a8.69,8.69,0,0,0,1.37,5.15,4.13,4.13,0,0,0,3.52,1.92,4.11,4.11,0,0,0,3.42-1.63,6.75,6.75,0,0,0,1.26-4.26,6.79,6.79,0,0,0-1.28-4.3A4.08,4.08,0,0,0,9.75,13.91Z"/></g></g></svg>