<svg xmlns="http://www.w3.org/2000/svg" viewBox="0 0 43.06 53.32"><defs><style>.cls-1{fill:#221f20;}</style></defs><title>o</title><g id="Layer_2" data-name="Layer 2"><g id="Layer_1-2" data-name="Layer 1"><path class="cls-1" d="M43.06,28A31.82,31.82,0,0,1,40.42,41.4a19.9,19.9,0,0,1-7.54,8.84A20.71,20.71,0,0,1,21.6,53.32a20.77,20.77,0,0,1-11.25-3.08,20.18,20.18,0,0,1-7.62-8.78A30.75,30.75,0,0,1,0,28.3V25.38A31.61,31.61,0,0,1,2.69,12a20.31,20.31,0,0,1,7.59-8.9A20.74,20.74,0,0,1,21.53,0,20.89,20.89,0,0,1,32.78,3.05a20,20,0,0,1,7.57,8.77,31.61,31.61,0,0,1,2.71,13.31Zm-9-2.71q0-8.62-3.26-13.23a10.69,10.69,0,0,0-9.25-4.59,10.6,10.6,0,0,0-9.14,4.58Q9.09,16.65,9,25v3q0,8.55,3.33,13.22a10.74,10.74,0,0,0,9.25,4.67,10.6,10.6,0,0,0,9.21-4.56Q34,36.79,34,28Z"/></g></g></svg>