<svg xmlns="http://www.w3.org/2000/svg" viewBox="0 0 43.13 61.59"><defs><style>.cls-1{fill:#221f20;}</style></defs><title>q</title><g id="Layer_2" data-name="Layer 2"><g id="Layer_1-2" data-name="Layer 1"><path class="cls-1" d="M43.09,28a31.9,31.9,0,0,1-2.33,12.77,20.87,20.87,0,0,1-6.54,8.58l8.91,7-5.85,5.27-11-8.73a22.28,22.28,0,0,1-4.67.46,20.71,20.71,0,0,1-11.21-3.08,20.18,20.18,0,0,1-7.62-8.78A30.75,30.75,0,0,1,0,28.3V25.38A31.61,31.61,0,0,1,2.69,12a20.31,20.31,0,0,1,7.59-8.9A20.67,20.67,0,0,1,21.49,0,21,21,0,0,1,32.81,3.05a19.89,19.89,0,0,1,7.57,8.77,31.3,31.3,0,0,1,2.71,13.31ZM34,25.31q0-8.77-3.28-13.3a10.78,10.78,0,0,0-9.27-4.52,10.57,10.57,0,0,0-9.1,4.58Q9.09,16.65,9,25v3q0,8.4,3.3,13.15a10.61,10.61,0,0,0,9.24,4.74,10.64,10.64,0,0,0,9.25-4.56Q34,36.79,34,28Z"/></g></g></svg>