<svg xmlns="http://www.w3.org/2000/svg" viewBox="0 0 30.23 52.31"><defs><style>.cls-1{fill:#231f20;}</style></defs><title>question</title><g id="Layer_2" data-name="Layer 2"><g id="Layer_1-2" data-name="Layer 1"><path class="cls-1" d="M10.2,36.88a19.61,19.61,0,0,1,1.16-7.46,19.62,19.62,0,0,1,4.58-6.11,34.47,34.47,0,0,0,4.35-4.73A8.33,8.33,0,0,0,21.69,14a7.09,7.09,0,0,0-1.63-5,6.27,6.27,0,0,0-4.8-1.74,6.91,6.91,0,0,0-4.87,1.7,6,6,0,0,0-1.85,4.61H0A12.62,12.62,0,0,1,4.24,3.62Q8.4,0,15.26,0q7.07,0,11,3.59t3.95,10q0,5.73-5.34,11.29l-4.32,4.26q-2.33,2.64-2.39,7.71ZM9.6,47.79a4.47,4.47,0,0,1,1.3-3.34,4.81,4.81,0,0,1,3.51-1.28A4.75,4.75,0,0,1,18,44.49,4.78,4.78,0,0,1,18,51a4.8,4.8,0,0,1-3.59,1.29A4.72,4.72,0,0,1,10.85,51,4.45,4.45,0,0,1,9.6,47.79Z"/></g></g></svg>