<svg xmlns="http://www.w3.org/2000/svg" viewBox="0 0 38.78 53.32"><defs><style>.cls-1{fill:#221f20;}</style></defs><title>s</title><g id="Layer_2" data-name="Layer 2"><g id="Layer_1-2" data-name="Layer 1"><path class="cls-1" d="M29.76,39.24A6.27,6.27,0,0,0,27.36,34q-2.41-1.86-8.68-3.74A41.72,41.72,0,0,1,8.7,26Q1.61,21.57,1.6,14.4A12.66,12.66,0,0,1,6.72,4.06Q11.84,0,20,0a22.45,22.45,0,0,1,9.66,2,15.83,15.83,0,0,1,6.66,5.68,14.56,14.56,0,0,1,2.43,8.18h-9A8.12,8.12,0,0,0,27.21,9.5C25.52,8,23.08,7.2,19.92,7.2a11,11,0,0,0-6.86,1.89,6.32,6.32,0,0,0-2.44,5.28,5.67,5.67,0,0,0,2.64,4.75A30.45,30.45,0,0,0,22,22.83a40.14,40.14,0,0,1,9.73,4.1,15.47,15.47,0,0,1,5.38,5.28,13.71,13.71,0,0,1,1.71,7,12.35,12.35,0,0,1-5,10.32q-5,3.84-13.49,3.83A25.36,25.36,0,0,1,10,51.24a17.38,17.38,0,0,1-7.34-5.76A14.3,14.3,0,0,1,0,36.93H9a8.37,8.37,0,0,0,2.92,6.84q2.93,2.43,8.38,2.43,4.7,0,7.07-1.91A6.15,6.15,0,0,0,29.76,39.24Z"/></g></g></svg>