<svg xmlns="http://www.w3.org/2000/svg" viewBox="0 0 39.62 35.82"><defs><style>.cls-1{fill:#231f20;}.cls-2{fill:none;}</style></defs><title>squiggle_1</title><g id="Layer_2" data-name="Layer 2"><g id="Layer_1-2" data-name="Layer 1"><path class="cls-1" d="M39.62,1a15,15,0,0,1-3.34,10.11A10.51,10.51,0,0,1,28,15.05a11.52,11.52,0,0,1-4.8-1,19.75,19.75,0,0,1-4.9-3.39,22,22,0,0,0-3.89-3,5.54,5.54,0,0,0-2.51-.58A4.36,4.36,0,0,0,8.14,8.93a7.85,7.85,0,0,0-1.35,4.78H0A14.93,14.93,0,0,1,3.2,3.85,10.37,10.37,0,0,1,11.6,0a12.05,12.05,0,0,1,4.94,1,18.59,18.59,0,0,1,4.89,3.35,21.17,21.17,0,0,0,3.72,2.9,5.57,5.57,0,0,0,2.55.6,4.62,4.62,0,0,0,3.84-2A7.94,7.94,0,0,0,33,1Z"/><path class="cls-2" d="M39.62,21.8a15,15,0,0,1-3.34,10.1A10.48,10.48,0,0,1,28,35.82a11.67,11.67,0,0,1-4.8-1,20.31,20.31,0,0,1-4.9-3.39,21.48,21.48,0,0,0-3.89-3,5.54,5.54,0,0,0-2.51-.58,4.36,4.36,0,0,0-3.71,1.83,7.83,7.83,0,0,0-1.35,4.78H0a14.91,14.91,0,0,1,3.2-9.86,10.37,10.37,0,0,1,8.4-3.85,12.05,12.05,0,0,1,4.94,1,18.78,18.78,0,0,1,4.89,3.34,21.37,21.37,0,0,0,3.72,2.91,5.69,5.69,0,0,0,2.55.59,4.6,4.6,0,0,0,3.84-2A7.91,7.91,0,0,0,33,21.8Z"/></g></g></svg>