<svg xmlns="http://www.w3.org/2000/svg" viewBox="0 0 20.16 29.55"><defs><style>.cls-1{fill:#231f20;}</style></defs><title>2</title><g id="Layer_2" data-name="Layer 2"><g id="Layer_1-2" data-name="Layer 1"><path class="cls-1" d="M20.16,29.55H.56V26.21l9.71-10.59a24.25,24.25,0,0,0,3-3.92,6.29,6.29,0,0,0,.89-3.15A4.77,4.77,0,0,0,13,5.19,4,4,0,0,0,9.83,3.9,4.63,4.63,0,0,0,6.17,5.35,5.65,5.65,0,0,0,4.86,9.29H0a9.54,9.54,0,0,1,1.21-4.8A8.37,8.37,0,0,1,4.67,1.18,11,11,0,0,1,9.87,0a9.88,9.88,0,0,1,6.7,2.13A7.42,7.42,0,0,1,19,8a10,10,0,0,1-1.23,4.57,25.9,25.9,0,0,1-4,5.44L6.63,25.67H20.16Z"/></g></g></svg>