<svg xmlns="http://www.w3.org/2000/svg" viewBox="0 0 19.08 29.55"><defs><style>.cls-1{fill:#231f20;}</style></defs><title>5</title><g id="Layer_2" data-name="Layer 2"><g id="Layer_1-2" data-name="Layer 1"><path class="cls-1" d="M.9,14.69,2.48,0H18.14V4.2H6.53l-.8,7A9,9,0,0,1,10.29,10a8.13,8.13,0,0,1,6.48,2.66,10.58,10.58,0,0,1,2.31,7.17,9.77,9.77,0,0,1-2.56,7.08,9.37,9.37,0,0,1-7,2.63,9.83,9.83,0,0,1-6.64-2.27,8.26,8.26,0,0,1-2.85-6H4.7a5.12,5.12,0,0,0,1.53,3.25,4.58,4.58,0,0,0,3.24,1.14A4.18,4.18,0,0,0,13,24.06a6.85,6.85,0,0,0,1.25-4.36,6.09,6.09,0,0,0-1.38-4.21A4.82,4.82,0,0,0,9,13.93a6.38,6.38,0,0,0-2.24.35,6.41,6.41,0,0,0-2,1.38Z"/></g></g></svg>