<svg xmlns="http://www.w3.org/2000/svg" viewBox="0 0 23.16 29.95"><defs><style>.cls-1{fill:#231f20;}</style></defs><title>c</title><g id="Layer_2" data-name="Layer 2"><g id="Layer_1-2" data-name="Layer 1"><path class="cls-1" d="M23.16,20.06a10.54,10.54,0,0,1-3.44,7.28,11.75,11.75,0,0,1-8,2.61A11.34,11.34,0,0,1,5.6,28.3a10.84,10.84,0,0,1-4.1-4.7A16.94,16.94,0,0,1,0,16.54V13.81A17.08,17.08,0,0,1,1.46,6.55,11,11,0,0,1,5.66,1.7,11.71,11.71,0,0,1,12,0a11.27,11.27,0,0,1,7.77,2.61A10.92,10.92,0,0,1,23.16,10h-5a7.16,7.16,0,0,0-1.83-4.53A6.07,6.07,0,0,0,12,4.08,5.91,5.91,0,0,0,6.9,6.5Q5.13,8.91,5.08,13.58v2.59q0,4.72,1.7,7.21a5.6,5.6,0,0,0,5,2.49,6.55,6.55,0,0,0,4.49-1.35,7,7,0,0,0,1.9-4.46Z"/></g></g></svg>