<svg xmlns="http://www.w3.org/2000/svg" viewBox="0 0 10.09 39.78"><defs><style>.cls-1{fill:#221f20;}</style></defs><title>colon</title><g id="Layer_2" data-name="Layer 2"><g id="Layer_1-2" data-name="Layer 1"><path class="cls-1" d="M5,0A5,5,0,0,1,8.77,1.37a4.77,4.77,0,0,1,1.32,3.44A4.59,4.59,0,0,1,8.77,8.18,5,5,0,0,1,5,9.52,5.06,5.06,0,0,1,1.35,8.2,4.53,4.53,0,0,1,0,4.81,4.77,4.77,0,0,1,1.32,1.37,4.91,4.91,0,0,1,5,0ZM5,30.26a5,5,0,0,1,3.74,1.37,4.79,4.79,0,0,1,1.32,3.44,4.59,4.59,0,0,1-1.32,3.37A5,5,0,0,1,5,39.78a5.06,5.06,0,0,1-3.68-1.32A4.53,4.53,0,0,1,0,35.07a4.79,4.79,0,0,1,1.32-3.44A4.91,4.91,0,0,1,5,30.26Z"/></g></g></svg>