<svg xmlns="http://www.w3.org/2000/svg" viewBox="0 0 38.71 51.9"><defs><style>.cls-1{fill:#221f20;}</style></defs><title>d</title><g id="Layer_2" data-name="Layer 2"><g id="Layer_1-2" data-name="Layer 1"><path class="cls-1" d="M0,51.9V0H15.33A24,24,0,0,1,27.54,3.07a20.91,20.91,0,0,1,8.25,8.69,27.63,27.63,0,0,1,2.92,12.91v2.6a27.47,27.47,0,0,1-2.94,13,20.63,20.63,0,0,1-8.38,8.63,25.12,25.12,0,0,1-12.45,3ZM9,7.27V44.7H14.9q7.09,0,10.89-4.44t3.87-12.74V24.63q0-8.44-3.68-12.9c-2.44-3-6-4.46-10.65-4.46Z"/></g></g></svg>