<svg xmlns="http://www.w3.org/2000/svg" viewBox="0 0 41.28 53.32"><defs><style>.cls-1{fill:#221f20;}</style></defs><title>g</title><g id="Layer_2" data-name="Layer 2"><g id="Layer_1-2" data-name="Layer 1"><path class="cls-1" d="M41.28,45.88a17.31,17.31,0,0,1-7.81,5.56,32.09,32.09,0,0,1-11.33,1.88,22.35,22.35,0,0,1-11.55-3A19.8,19.8,0,0,1,2.83,41.9,29.69,29.69,0,0,1,0,29.05V25Q0,13.22,5.63,6.61T21.35,0Q30,0,35.11,4.29t6.13,12.36H32.4Q30.9,7.28,21.53,7.27q-6.06,0-9.21,4.36T9.05,24.44v4q0,8.41,3.55,13.06a11.69,11.69,0,0,0,9.86,4.64q6.91,0,9.83-3.13V32.83H21.6V26H41.28Z"/></g></g></svg>