<svg xmlns="http://www.w3.org/2000/svg" viewBox="0 0 19.34 29.95"><defs><style>.cls-1{fill:#231f20;}</style></defs><title>3</title><g id="Layer_2" data-name="Layer 2"><g id="Layer_1-2" data-name="Layer 1"><path class="cls-1" d="M6.23,12.75h3a5.28,5.28,0,0,0,3.55-1.16,4.12,4.12,0,0,0,1.31-3.3A4.52,4.52,0,0,0,13,5.05,4.42,4.42,0,0,0,9.63,3.9,4.61,4.61,0,0,0,6.41,5,3.76,3.76,0,0,0,5.15,8H.28A7.41,7.41,0,0,1,1.47,3.9,8.11,8.11,0,0,1,4.79,1,10.84,10.84,0,0,1,9.57,0a10.05,10.05,0,0,1,6.86,2.19,7.71,7.71,0,0,1,2.49,6.1A6.2,6.2,0,0,1,17.67,12a7.74,7.74,0,0,1-3.24,2.61,7.15,7.15,0,0,1,3.66,2.59,7.07,7.07,0,0,1,1.25,4.2,7.85,7.85,0,0,1-2.69,6.25A10.47,10.47,0,0,1,9.57,30a10.42,10.42,0,0,1-6.89-2.24,7.4,7.4,0,0,1-2.68-6H4.86a4.07,4.07,0,0,0,1.3,3.12,4.84,4.84,0,0,0,3.47,1.21,5,5,0,0,0,3.56-1.21,4.49,4.49,0,0,0,1.3-3.48,4.55,4.55,0,0,0-1.36-3.54,5.78,5.78,0,0,0-4-1.24H6.23Z"/></g></g></svg>