<svg xmlns="http://www.w3.org/2000/svg" viewBox="0 0 19.1 29.95"><defs><style>.cls-1{fill:#231f20;}</style></defs><title>8</title><g id="Layer_2" data-name="Layer 2"><g id="Layer_1-2" data-name="Layer 1"><path class="cls-1" d="M18.46,8.09a6.78,6.78,0,0,1-1.1,3.81,7.63,7.63,0,0,1-3,2.63,8.3,8.3,0,0,1,3.52,2.91A7.32,7.32,0,0,1,19.1,21.6a7.67,7.67,0,0,1-2.6,6.1A10.24,10.24,0,0,1,9.57,30a10.24,10.24,0,0,1-7-2.26A7.65,7.65,0,0,1,0,21.6a7.38,7.38,0,0,1,1.24-4.2,8,8,0,0,1,3.48-2.87,7.58,7.58,0,0,1-3-2.63A6.77,6.77,0,0,1,.66,8.09a7.61,7.61,0,0,1,2.4-5.91A9.31,9.31,0,0,1,9.55,0a9.35,9.35,0,0,1,6.51,2.18A7.61,7.61,0,0,1,18.46,8.09ZM14.23,21.36a4.81,4.81,0,0,0-1.29-3.49,4.53,4.53,0,0,0-3.41-1.33,4.47,4.47,0,0,0-3.39,1.32,4.83,4.83,0,0,0-1.27,3.5,4.65,4.65,0,0,0,1.25,3.42,4.57,4.57,0,0,0,3.45,1.29A4.6,4.6,0,0,0,13,24.82,4.69,4.69,0,0,0,14.23,21.36ZM13.61,8.27a4.52,4.52,0,0,0-1.1-3.14,3.77,3.77,0,0,0-3-1.23A3.78,3.78,0,0,0,6.61,5.08,4.52,4.52,0,0,0,5.53,8.27a4.5,4.5,0,0,0,1.09,3.18,3.8,3.8,0,0,0,3,1.18,3.81,3.81,0,0,0,2.95-1.18A4.5,4.5,0,0,0,13.61,8.27Z"/></g></g></svg>