<svg xmlns="http://www.w3.org/2000/svg" viewBox="0 0 19 29.67"><defs><style>.cls-1{fill:#231f20;}</style></defs><title>9</title><g id="Layer_2" data-name="Layer 2"><g id="Layer_1-2" data-name="Layer 1"><path class="cls-1" d="M14.11,17.36a7.61,7.61,0,0,1-5.7,2.58,7.64,7.64,0,0,1-6.13-2.69A10.6,10.6,0,0,1,0,10.17,11.71,11.71,0,0,1,1.16,4.94,8.76,8.76,0,0,1,4.46,1.3a9.38,9.38,0,0,1,5-1.3,8.41,8.41,0,0,1,7,3.28Q19,6.57,19,12.07v1.36q0,7.89-3.56,12T4.8,29.67H4.22v-4h.71c2.86,0,5.07-.74,6.6-2.08S13.93,20.16,14.11,17.36ZM9.43,16.14a4.84,4.84,0,0,0,2.74-.85,5.42,5.42,0,0,0,2-2.32v-1.9a9.1,9.1,0,0,0-1.32-5.18,4,4,0,0,0-3.42-2A3.92,3.92,0,0,0,6.06,5.66,7.22,7.22,0,0,0,4.8,10a7.18,7.18,0,0,0,1.27,4.42A4,4,0,0,0,9.43,16.14Z"/></g></g></svg>