<svg xmlns="http://www.w3.org/2000/svg" viewBox="0 0 58.51 66.9"><defs><style>.cls-1{fill:#221f20;}</style></defs><title>at</title><g id="Layer_2" data-name="Layer 2"><g id="Layer_1-2" data-name="Layer 1"><path class="cls-1" d="M58.46,32.29Q58,41.22,54.08,46.36a12.83,12.83,0,0,1-10.73,5.15q-6.45,0-8.63-5.49a12.59,12.59,0,0,1-4.22,4.06,10.17,10.17,0,0,1-5,1.36,8.76,8.76,0,0,1-7.9-4.28q-2.68-4.27-2-11.44a30.85,30.85,0,0,1,2.83-10.48A19,19,0,0,1,24.08,18a12.31,12.31,0,0,1,7.4-2.55,17,17,0,0,1,5.29.75,19.17,19.17,0,0,1,5.4,3.1L40.32,39.39q-.68,7.05,4.06,7.06c2.43,0,4.42-1.31,6-3.91a20.85,20.85,0,0,0,2.55-10.1q.62-13.15-5.08-20.14t-17.09-7A22.37,22.37,0,0,0,18.34,8.8,24.1,24.1,0,0,0,9.77,18.91,37.81,37.81,0,0,0,6.28,34,35.1,35.1,0,0,0,8.33,48.78a19.21,19.21,0,0,0,7.59,9.46,22.81,22.81,0,0,0,12.49,3.25,29,29,0,0,0,6.26-.72,21.47,21.47,0,0,0,5.54-1.92l1.36,4.88A18.55,18.55,0,0,1,35.7,66a32.23,32.23,0,0,1-7.43.87,30,30,0,0,1-15.54-3.83A23.71,23.71,0,0,1,3,52Q-.34,44.46,0,34A42.65,42.65,0,0,1,4.42,16.41,30,30,0,0,1,15.24,4.31,28.82,28.82,0,0,1,30.87,0,28.81,28.81,0,0,1,46.15,3.9a23.93,23.93,0,0,1,9.57,11.23A38.61,38.61,0,0,1,58.46,32.29Zm-36,3.43q-.46,4.85.85,7.36a4.43,4.43,0,0,0,4.21,2.51,5.12,5.12,0,0,0,3.63-1.69A12.16,12.16,0,0,0,34,39.24l1.61-17.57A9.75,9.75,0,0,0,32.12,21a7.5,7.5,0,0,0-6.45,3.73Q23.18,28.44,22.5,35.72Z"/></g></g></svg>