<svg xmlns="http://www.w3.org/2000/svg" viewBox="0 0 46.36 62.09"><defs><style>.cls-1{fill:#231f20;}</style></defs><title>s</title><g id="Layer_2" data-name="Layer 2"><g id="Layer_1-2" data-name="Layer 1"><path class="cls-1" d="M33.87,45.41A6.39,6.39,0,0,0,31.38,40q-2.49-1.89-9-4a63.81,63.81,0,0,1-10.25-4.12q-10.29-5.56-10.29-15A14.58,14.58,0,0,1,4.63,8.16a18,18,0,0,1,7.93-6A29.79,29.79,0,0,1,24.16,0,27.17,27.17,0,0,1,35.69,2.34,18.49,18.49,0,0,1,43.56,9a17.32,17.32,0,0,1,2.8,9.72H33.91a8.14,8.14,0,0,0-2.62-6.46Q28.68,9.92,24,9.92c-3.05,0-5.41.64-7.1,1.93a6.08,6.08,0,0,0-2.53,5.08,5.83,5.83,0,0,0,3,4.94A33.28,33.28,0,0,0,26,25.61q10.64,3.2,15.48,7.93a15.76,15.76,0,0,1,4.86,11.78,14.55,14.55,0,0,1-5.94,12.31q-5.93,4.45-16,4.46a30.85,30.85,0,0,1-12.7-2.55,20.07,20.07,0,0,1-8.74-7A17.87,17.87,0,0,1,0,42.25H12.49q0,10,12,10a11.65,11.65,0,0,0,6.93-1.8A5.89,5.89,0,0,0,33.87,45.41Z"/></g></g></svg>