<svg xmlns="http://www.w3.org/2000/svg" viewBox="0 0 51.46 62.09"><defs><style>.cls-1{fill:#231f20;}</style></defs><title>0</title><g id="Layer_2" data-name="Layer 2"><g id="Layer_1-2" data-name="Layer 1"><path class="cls-1" d="M51.46,32.41a36.53,36.53,0,0,1-3.15,15.65,23.77,23.77,0,0,1-9,10.38,25,25,0,0,1-13.46,3.65,25.13,25.13,0,0,1-13.41-3.61A24,24,0,0,1,3.28,48.17,35.46,35.46,0,0,1,0,32.75v-3A36.19,36.19,0,0,1,3.22,14.05,23.92,23.92,0,0,1,12.31,3.63,25,25,0,0,1,25.73,0,25,25,0,0,1,39.16,3.63a24,24,0,0,1,9.09,10.42,36.25,36.25,0,0,1,3.21,15.67ZM38.85,29.68q0-9.51-3.41-14.45a11.08,11.08,0,0,0-9.71-4.94,11.1,11.1,0,0,0-9.67,4.88q-3.4,4.88-3.44,14.3v2.94q0,9.26,3.4,14.36a11.05,11.05,0,0,0,9.8,5.11A11,11,0,0,0,35.44,47Q38.82,42,38.85,32.62Z"/></g></g></svg>